<svg width="7" height="12" viewBox="0 0 7 12" fill="none" xmlns="http://www.w3.org/2000/svg">
<path d="M4.71764 6.00232L0.54885 1.83354L0.548837 1.83352C0.300994 1.58564 0.300994 1.18377 0.548837 0.935893L0.54889 0.935839C0.796781 0.688061 1.1986 0.688042 1.44648 0.935853L1.44651 0.935879L6.06412 5.55349L6.06415 5.55352C6.31195 5.8014 6.31195 6.20325 6.06415 6.45112L6.06412 6.45115L1.44651 11.0688L1.44653 11.0688L1.4434 11.0718C1.19122 11.3154 0.789356 11.3084 0.5458 11.0562L0.545791 11.0562C0.308239 10.8102 0.30822 10.4202 0.545804 10.1742L0.545777 10.1742L0.54885 10.1711L4.71764 6.00232Z" fill="#0B8040" stroke="#0B8040" stroke-width="0.5"/>
</svg>
