<svg width="20" height="22" viewBox="0 0 20 22" fill="none" xmlns="http://www.w3.org/2000/svg">
<path d="M15.7089 0.732464C15.8673 0.547682 15.8497 0.270509 15.6649 0.112125C15.4801 -0.0462597 15.203 -0.0286614 15.0446 0.15612C14.5254 0.750062 14.455 1.45399 14.3759 2.20192C14.2879 3.06863 14.1911 3.96175 13.4299 4.94725C13.2144 4.77567 12.9812 4.61288 12.7216 4.4721C12.4268 4.31371 12.2289 4.01454 12.2025 3.67577C12.1189 2.69907 11.3138 1.95994 10.3327 1.95994H9.49233C8.52003 1.95994 7.71931 2.69027 7.62692 3.65818C7.59612 3.98814 7.40254 4.27852 7.11657 4.4325C6.84379 4.57769 6.59742 4.75367 6.36424 4.94285C5.60311 3.95735 5.50632 3.06423 5.41833 2.20192C5.33914 1.45399 5.26875 0.750062 4.7496 0.151721C4.59121 -0.0330609 4.30964 -0.0506594 4.12926 0.107725C3.94448 0.26611 3.92688 0.543282 4.08526 0.728064C4.42403 1.11523 4.47683 1.63437 4.54282 2.28551C4.63521 3.20942 4.754 4.34451 5.7351 5.56319C5.64711 5.67318 5.55472 5.78757 5.47993 5.90636C5.20715 6.33751 5.03117 6.80827 4.96518 7.29222C6.95378 7.4418 8.74881 8.44931 9.89709 10.0024C11.0542 8.44491 12.8492 7.4374 14.8334 7.29222C14.7674 6.81267 14.5914 6.33311 14.3143 5.90636C14.2395 5.78757 14.1515 5.67318 14.0635 5.56319C15.0446 4.34451 15.159 3.20942 15.2558 2.28551C15.3174 1.63437 15.3702 1.11963 15.7089 0.732464Z" fill="#0B8040"/>
<path d="M18.1108 10.8471C18.0756 10.7635 18.0184 10.6975 17.9392 10.6491L15.7703 9.29843C15.7483 9.04325 15.7219 8.79248 15.6911 8.5417C15.6647 8.32172 15.4755 8.15454 15.2555 8.15454C15.2511 8.15454 15.2467 8.15454 15.2467 8.15454L15.1235 8.15894C12.7434 8.24253 10.7459 9.71199 9.89683 11.7798C9.04772 9.71639 7.06351 8.24693 4.70094 8.15894H4.59975C4.38417 8.14574 4.17739 8.31293 4.1466 8.5417C4.1158 8.78368 4.0894 9.02565 4.0718 9.27203L1.85442 10.6491C1.77963 10.6975 1.72243 10.7635 1.68724 10.8471L0.0373997 14.5999C-0.0593908 14.8243 0.0373998 15.0839 0.261778 15.1807C0.318972 15.207 0.380566 15.2158 0.43776 15.2158C0.609344 15.2158 0.767728 15.1191 0.842521 14.9563L2.43516 11.3222L4.02341 10.3411C4.01901 10.4071 4.01901 10.4775 4.01901 10.5435C4.01901 12.8137 4.47656 14.8815 5.25089 16.5137L2.93232 17.1605C2.80913 17.1957 2.70354 17.2836 2.65074 17.4024L0.820523 21.3752C0.719333 21.5952 0.816123 21.8592 1.0361 21.9604C1.0977 21.9868 1.15929 22 1.22088 22C1.38807 22 1.54645 21.9032 1.62124 21.7448L3.36347 17.9524L5.66885 17.31C6.71594 19.0787 8.181 20.1742 9.83084 20.2138C9.85724 20.2138 9.88803 20.2182 9.91883 20.2182C11.0099 20.2182 12.0746 19.7342 12.9897 18.8235C13.4209 18.3967 13.8124 17.8864 14.1512 17.3144L16.4302 17.9524L18.1768 21.7448C18.2516 21.9032 18.41 22 18.5772 22C18.6388 22 18.7004 21.9868 18.762 21.9604C18.9819 21.8592 19.0787 21.5952 18.9775 21.3752L17.1473 17.4024C17.0901 17.2836 16.9889 17.1957 16.8657 17.1605L14.5736 16.5225C15.3743 14.8507 15.8186 12.7653 15.8186 10.5435C15.8186 10.4819 15.8187 10.4247 15.8143 10.3631L17.3585 11.3222L18.9555 14.9563C19.0259 15.1191 19.1887 15.2158 19.3559 15.2158C19.4175 15.2158 19.4791 15.207 19.5363 15.1807C19.7563 15.0839 19.8575 14.8243 19.7607 14.5999L18.1108 10.8471Z" fill="#0B8040"/>
</svg>
