<svg width="16" height="16" viewBox="0 0 16 16" fill="none" xmlns="http://www.w3.org/2000/svg">
<path d="M15.6889 12.7226L13.9151 11.54L12.3383 10.4889C12.034 10.2865 11.625 10.3528 11.4003 10.6412L10.4246 11.8955C10.2151 12.1677 9.83802 12.2459 9.53747 12.0795C8.87541 11.7113 8.09251 11.3645 6.3651 9.63489C4.63768 7.90525 4.28872 7.12457 3.92044 6.46252C3.75403 6.16196 3.83225 5.78493 4.10444 5.57537L5.35877 4.59966C5.64711 4.37504 5.71351 3.96608 5.51104 3.66174L4.49231 2.13348L3.27741 0.311122C3.07064 0.000938136 2.6567 -0.0921858 2.33702 0.0995307L0.935911 0.940083C0.557259 1.16317 0.278919 1.52342 0.158545 1.94613C-0.224606 3.34309 -0.301855 6.42471 4.63684 11.3634C9.57553 16.3021 12.6569 16.2246 14.0538 15.8414C14.4765 15.7211 14.8368 15.4427 15.0599 15.064L15.9004 13.663C16.0922 13.3432 15.999 12.9293 15.6889 12.7226Z" fill="#0B8040"/>
</svg>
