<svg width="22" height="16" viewBox="0 0 22 16" fill="none" xmlns="http://www.w3.org/2000/svg">
<path d="M2.1855 0C0.989668 0 0 0.988251 0 2.18408V13.8145C0 15.0103 0.989685 16 2.1855 16H19.634C20.8298 16 21.8124 15.0103 21.8124 13.8145V2.18408C21.8124 0.988251 20.8298 0 19.634 0H2.1855ZM10.9062 2.90832C13.7085 2.90832 16 5.19419 16 7.99645C16 10.7987 13.7085 13.0903 10.9062 13.0903C8.10392 13.0903 5.81805 10.7987 5.81805 7.99645C5.81805 5.19419 8.10392 2.90832 10.9062 2.90832ZM3.63824 2.90974C3.73372 2.90974 3.82826 2.92854 3.91648 2.96508C4.00469 3.00162 4.08484 3.05518 4.15236 3.12269C4.21987 3.19021 4.27343 3.27036 4.30997 3.35857C4.34651 3.44679 4.36531 3.54133 4.36531 3.63682C4.36531 3.7323 4.34651 3.82684 4.30997 3.91506C4.27343 4.00327 4.21987 4.08342 4.15236 4.15094C4.08484 4.21845 4.00469 4.27201 3.91648 4.30855C3.82826 4.34509 3.73372 4.36389 3.63824 4.36389C3.54275 4.36389 3.44821 4.34509 3.35999 4.30855C3.27178 4.27201 3.19163 4.21845 3.12411 4.15094C3.0566 4.08342 3.00304 4.00327 2.9665 3.91506C2.92996 3.82684 2.91116 3.7323 2.91116 3.63682C2.91116 3.54133 2.92996 3.44679 2.9665 3.35857C3.00304 3.27036 3.0566 3.19021 3.12411 3.12269C3.19163 3.05518 3.27178 3.00162 3.35999 2.96508C3.44821 2.92854 3.54275 2.90974 3.63824 2.90974ZM10.9062 4.36389C8.8898 4.36389 7.27221 5.98007 7.27221 7.99645C7.27221 10.0128 8.8898 11.6361 10.9062 11.6361C12.9226 11.6361 14.5458 10.0128 14.5458 7.99645C14.5458 5.98007 12.9226 4.36389 10.9062 4.36389Z" fill="#0B8040"/>
</svg>
