<svg width="66" height="42" viewBox="0 0 66 42" fill="none" xmlns="http://www.w3.org/2000/svg">
<path d="M14.9189 33.8665H8.35469H8.13588H7.59881V33.4447C7.59881 32.7015 7.43968 32.1792 7.12142 31.8177C6.80315 31.4762 6.36554 31.2954 5.82847 31.2954C5.58977 31.2954 5.37096 31.3356 5.17205 31.3958C4.97313 31.4561 4.79411 31.5565 4.65487 31.6971C4.51563 31.8177 4.39628 31.9784 4.31671 32.1591C4.23715 32.3399 4.19736 32.5408 4.19736 32.7417C4.19736 32.9425 4.25704 33.0831 4.3565 33.1635C4.45595 33.2237 4.59519 33.2639 4.75433 33.2639C4.814 33.2639 4.85378 33.2639 4.89357 33.2639C4.93335 33.2639 4.97313 33.2438 5.01292 33.2438C5.0527 33.2237 5.09248 33.2237 5.13226 33.2037V32.9224C5.13226 32.7818 5.15216 32.6613 5.19194 32.5609C5.23172 32.4604 5.2914 32.36 5.35107 32.2997C5.43064 32.2395 5.49031 32.1792 5.58977 32.1591C5.66933 32.119 5.76879 32.119 5.86825 32.119C6.14673 32.119 6.34565 32.2395 6.50478 32.4604C6.66391 32.6814 6.74348 33.0229 6.74348 33.505V33.9268H5.90803H5.70912H0.0997134C0.0798219 33.987 0.0599303 34.0272 0.0599303 34.0875C0.0599303 34.1477 0.0400391 34.208 0.0400391 34.2482C0.0400391 34.4892 0.139497 34.6097 0.338412 34.6097H4.21726V37.7834L2.32756 36.297C2.40713 36.2569 2.50659 36.2368 2.60604 36.2167C2.7055 36.1966 2.80496 36.1765 2.92431 36.1765C3.04366 36.1765 3.16301 36.1765 3.28235 36.1966C3.4017 36.2167 3.48127 36.2368 3.54094 36.2568C3.62051 36.1765 3.66029 36.056 3.66029 35.9355C3.66029 35.7949 3.58073 35.6743 3.44149 35.5739C3.28235 35.4735 3.04366 35.4333 2.72539 35.4333C2.4668 35.4333 2.20821 35.4735 1.98941 35.5538C1.75071 35.6342 1.55179 35.7547 1.39266 35.9154C1.21364 36.0761 1.09429 36.2568 0.994831 36.4778C0.895374 36.6988 0.855591 36.9398 0.855591 37.2009C0.855591 37.5022 0.915265 37.7834 1.01472 38.0245C1.13407 38.2655 1.27331 38.4664 1.45234 38.607C1.63136 38.7677 1.85017 38.8882 2.08886 38.9686C2.32756 39.0489 2.58615 39.0891 2.84474 39.0891C3.14311 39.0891 3.42159 39.0489 3.6404 38.9686C3.8791 38.8882 4.07801 38.7878 4.23715 38.6673V39.4707C4.23715 39.6113 4.27693 39.7319 4.3565 39.7921C4.43606 39.8524 4.5753 39.8926 4.75433 39.8926C4.83389 39.8926 4.91346 39.8926 4.97313 39.8725C5.03281 39.8524 5.09248 39.8524 5.13226 39.8323V34.6097H5.92792H6.12684H6.72359V39.4707C6.72359 39.6113 6.76337 39.7319 6.84293 39.7921C6.9225 39.8524 7.06174 39.8926 7.24076 39.8926C7.32033 39.8926 7.3999 39.8926 7.45957 39.8725C7.51925 39.8524 7.57892 39.8524 7.6187 39.8323V34.6097H8.39447H8.61328H13.2878V35.8752H9.38905C9.34926 35.9756 9.32937 36.1162 9.32937 36.2769C9.32937 36.518 9.40894 36.6385 9.56807 36.6385H10.5428C10.7616 36.6988 10.9406 36.8193 11.0997 37.0001C11.239 37.1808 11.3185 37.3817 11.3185 37.6228C11.3185 37.8437 11.239 38.0446 11.0798 38.2254C10.9207 38.4061 10.6621 38.4865 10.3041 38.4865C10.0256 38.4865 9.76698 38.4262 9.56807 38.3258C9.34926 38.2254 9.17024 38.0847 8.99122 37.904C8.89176 37.9241 8.7923 37.9843 8.71274 38.0647C8.63317 38.145 8.59339 38.2454 8.59339 38.386C8.59339 38.5066 8.63317 38.607 8.73263 38.7074C8.83208 38.8079 8.95143 38.9083 9.11057 38.9887C9.2697 39.069 9.44872 39.1293 9.66753 39.1895C9.88633 39.2297 10.1051 39.2699 10.3438 39.2699C10.9605 39.2699 11.4379 39.1293 11.776 38.848C12.1142 38.5668 12.2733 38.2254 12.2733 37.7834C12.2733 37.5223 12.2136 37.2813 12.0943 37.0804C11.9749 36.8795 11.8158 36.7188 11.6567 36.5983H13.3077V39.4908C13.3077 39.6314 13.3475 39.752 13.427 39.8122C13.5066 39.8725 13.6458 39.9126 13.8249 39.9126C13.9044 39.9126 13.984 39.9126 14.0437 39.8926C14.1033 39.8725 14.163 39.8725 14.2028 39.8524V34.6298H15.1974C15.2173 34.5696 15.2371 34.5294 15.2371 34.449C15.2371 34.3888 15.257 34.3285 15.257 34.2683C15.2173 33.987 15.1178 33.8665 14.9189 33.8665ZM3.44149 38.2053C3.30225 38.2454 3.14311 38.2655 2.96409 38.2655C2.60604 38.2655 2.32756 38.1651 2.08886 37.9642C1.87006 37.7634 1.75071 37.5022 1.75071 37.1808C1.75071 36.9398 1.81038 36.7389 1.94962 36.5581L3.83932 38.0446C3.71997 38.1249 3.60062 38.1651 3.44149 38.2053Z" fill="#0B8040"/>
<path d="M23.5316 33.8662H22.6763C22.5768 33.5649 22.4376 33.2636 22.2585 32.9824C22.0596 32.6811 21.8408 32.3998 21.622 32.1588C21.3833 31.9178 21.1446 31.737 20.9059 31.5964C20.6672 31.4558 20.4484 31.3955 20.2495 31.3955C20.0904 31.3955 19.9511 31.4558 19.8716 31.5562C19.792 31.6566 19.7522 31.7972 19.7522 31.9379C19.7522 31.978 19.7522 31.9981 19.7522 32.0383C19.7522 32.0785 19.7522 32.0985 19.7522 32.1186C19.9312 32.1588 20.1301 32.2392 20.349 32.3396C20.5678 32.44 20.7667 32.5806 20.9656 32.7413C21.1645 32.902 21.3435 33.0828 21.5226 33.2837C21.6618 33.4644 21.7811 33.6452 21.8806 33.8461H16.5895C16.5696 33.9064 16.5497 33.9465 16.5497 34.0068C16.5497 34.0671 16.5298 34.1273 16.5298 34.1675C16.5298 34.4085 16.6292 34.529 16.8282 34.529H18.877C18.9764 34.6496 19.056 34.8103 19.1157 34.991C19.1754 35.1718 19.2151 35.3526 19.2151 35.5535C19.2151 35.895 19.1157 36.1561 18.8969 36.3369C18.698 36.5176 18.3797 36.6181 17.962 36.6181C17.8426 36.6181 17.7233 36.6181 17.6039 36.598C17.5045 36.5779 17.405 36.5578 17.3453 36.5377C17.2459 36.6583 17.2061 36.7989 17.2061 36.9596C17.2061 37.0801 17.2459 37.1805 17.3254 37.2609C17.405 37.3412 17.5244 37.3814 17.7034 37.4015C17.7829 37.7429 17.9222 38.0442 18.0614 38.3455C18.2206 38.6268 18.3797 38.8879 18.5587 39.1088C18.7377 39.3298 18.9367 39.4905 19.1356 39.6311C19.3345 39.7516 19.5135 39.832 19.7124 39.832C19.8914 39.832 20.0307 39.7717 20.1301 39.6713C20.2097 39.5708 20.2694 39.4302 20.2694 39.2695C19.9113 39.0888 19.5732 38.8276 19.2549 38.5062C18.9367 38.1848 18.698 37.8032 18.499 37.3814C18.8571 37.3412 19.1952 37.2408 19.4538 37.0399C19.6726 37.1604 19.9312 37.2609 20.1898 37.3211C20.4683 37.3814 20.7269 37.4215 21.0054 37.4215C21.1844 37.4215 21.3435 37.4015 21.4828 37.3814C21.622 37.3613 21.7612 37.3211 21.9005 37.301V39.4101C21.9005 39.5508 21.9403 39.6713 22.0198 39.7315C22.0994 39.7918 22.2386 39.832 22.4177 39.832C22.4972 39.832 22.5768 39.832 22.6365 39.8119C22.6961 39.7918 22.7558 39.7918 22.7956 39.7717V34.5491H23.7902C23.8101 34.4889 23.83 34.4487 23.83 34.3684C23.83 34.3081 23.8499 34.2478 23.8499 34.1876C23.83 33.9867 23.7305 33.8662 23.5316 33.8662ZM21.9005 36.4574C21.6021 36.598 21.2441 36.6783 20.8462 36.6783C20.6871 36.6783 20.5479 36.6783 20.3887 36.6582C20.2296 36.6382 20.0904 36.598 19.9312 36.5578C20.0108 36.4373 20.0506 36.2967 20.0904 36.1561C20.1301 36.0155 20.15 35.8548 20.15 35.6941C20.15 35.4731 20.1103 35.2522 20.0506 35.0714C19.9909 34.8906 19.8914 34.7299 19.792 34.5692H21.8806V36.4574H21.9005Z" fill="#0B8040"/>
<path d="M35.2476 39.9126C35.0885 39.9126 34.9493 39.9729 34.8299 40.0733C34.7106 40.1938 34.6509 40.3143 34.6509 40.4951C34.6509 40.6558 34.7106 40.7964 34.8299 40.9169C34.9493 41.0375 35.0885 41.0776 35.2476 41.0776C35.4068 41.0776 35.546 41.0174 35.6653 40.9169C35.7847 40.7964 35.8245 40.6759 35.8245 40.4951C35.8245 40.3344 35.7648 40.1938 35.6653 40.0733C35.546 39.9729 35.4068 39.9126 35.2476 39.9126Z" fill="#0B8040"/>
<path d="M46.3868 33.8662H42.508H42.2892H40.0215H39.8226H33.4574H33.2385H30.9709H30.772H25.2223C25.2024 33.9265 25.1825 33.9666 25.1825 34.0269C25.1825 34.0872 25.1626 34.1474 25.1626 34.1876C25.1626 34.4286 25.2621 34.5492 25.461 34.5492H29.3398V37.7229L27.4501 36.2365C27.5297 36.1963 27.6291 36.1762 27.7286 36.1561C27.8281 36.136 27.9275 36.1159 28.0469 36.1159C28.1662 36.1159 28.2856 36.1159 28.4049 36.136C28.5243 36.1561 28.6038 36.1762 28.6635 36.1963C28.7431 36.1159 28.7829 35.9954 28.7829 35.8749C28.7829 35.7343 28.7033 35.6138 28.564 35.5133C28.4049 35.4129 28.1662 35.3727 27.848 35.3727C27.5894 35.3727 27.3308 35.4129 27.112 35.4932C26.8733 35.5736 26.6744 35.6941 26.5152 35.8548C26.3362 36.0155 26.2168 36.1963 26.1174 36.4172C26.0179 36.6382 25.9782 36.8792 25.9782 37.1404C25.9782 37.4417 26.0378 37.7229 26.1373 37.9639C26.2566 38.205 26.3959 38.4058 26.5749 38.5464C26.7539 38.7071 26.9727 38.8276 27.2114 38.908C27.4501 38.9883 27.7087 39.0285 27.9673 39.0285C28.2657 39.0285 28.5442 38.9883 28.763 38.908C29.0017 38.8276 29.2006 38.7272 29.3597 38.6067V39.4102C29.3597 39.5508 29.3995 39.6713 29.4791 39.7316C29.5586 39.7918 29.6979 39.832 29.8769 39.832C29.9564 39.832 30.036 39.832 30.0957 39.8119C30.1554 39.7918 30.215 39.7918 30.2548 39.7717V34.5492H31.0505H31.2494H31.8461V39.4102C31.8461 39.5508 31.8859 39.6713 31.9655 39.7316C32.0451 39.7918 32.1843 39.832 32.3633 39.832C32.4429 39.832 32.5225 39.832 32.5821 39.8119C32.6418 39.7918 32.7015 39.7918 32.7413 39.7717V34.5492H33.517H33.7358H38.3904V35.8146H34.5116C34.4718 35.9151 34.4519 36.0557 34.4519 36.2164C34.4519 36.4574 34.5315 36.5779 34.6906 36.5779H35.6653C35.8841 36.6382 36.0631 36.7587 36.2223 36.9395C36.3615 37.1203 36.4411 37.3211 36.4411 37.5622C36.4411 37.7831 36.3615 37.984 36.2024 38.1648C36.0432 38.3456 35.7847 38.4259 35.4266 38.4259C35.1481 38.4259 34.8895 38.3657 34.6906 38.2652C34.4718 38.1648 34.2928 38.0242 34.1138 37.8434C34.0143 37.8635 33.9149 37.9237 33.8353 38.0041C33.7557 38.0844 33.7159 38.1849 33.7159 38.3255C33.7159 38.446 33.7557 38.5464 33.8552 38.6469C33.9546 38.7473 34.074 38.8477 34.2331 38.9281C34.3923 39.0084 34.5713 39.0687 34.7901 39.1289C35.0089 39.1691 35.2277 39.2093 35.4664 39.2093C36.083 39.2093 36.5604 39.0687 36.8986 38.7875C37.2367 38.5063 37.3959 38.1648 37.3959 37.7229C37.3959 37.4617 37.3362 37.2207 37.2168 37.0198C37.0975 36.819 36.9384 36.6583 36.7792 36.5378H38.4302V39.4303C38.4302 39.5709 38.47 39.6914 38.5496 39.7516C38.6291 39.8119 38.7684 39.8521 38.9474 39.8521C39.027 39.8521 39.1065 39.8521 39.1662 39.832C39.2259 39.8119 39.2856 39.8119 39.3253 39.7918V34.5692H40.121H40.3199H40.9167V39.4303C40.9167 39.5709 40.9565 39.6914 41.036 39.7516C41.1156 39.8119 41.2548 39.8521 41.4338 39.8521C41.5134 39.8521 41.593 39.8521 41.6527 39.832C41.7123 39.8119 41.772 39.8119 41.8118 39.7918V34.5692H42.5876H42.8064H44.6563C44.7557 34.7099 44.8552 34.8705 44.9149 35.0513C44.9745 35.2321 45.0143 35.4129 45.0143 35.5937C45.0143 35.7544 44.9944 35.895 44.9347 36.0356C44.895 36.1762 44.8154 36.2967 44.7159 36.3971C44.6165 36.4976 44.4772 36.5779 44.3181 36.6382C44.159 36.6984 43.9601 36.7185 43.7214 36.7185C43.602 36.7185 43.4827 36.7185 43.3832 36.6984C43.2838 36.6784 43.1843 36.6583 43.1246 36.6382C43.0848 36.6984 43.0451 36.7587 43.0252 36.819C43.0053 36.8993 42.9854 36.9797 42.9854 37.06C42.9854 37.3412 43.1644 37.5019 43.5423 37.5019C43.6816 37.8836 43.8208 38.225 43.98 38.5263C44.1391 38.8276 44.3181 39.0687 44.4971 39.2696C44.6762 39.4704 44.8552 39.611 45.0143 39.7115C45.1933 39.8119 45.3525 39.8521 45.5116 39.8521C45.6906 39.8521 45.8299 39.7918 45.9094 39.6914C45.989 39.5909 46.0288 39.4503 46.0288 39.2696C45.631 39.0687 45.2928 38.8076 45.0143 38.5063C44.7358 38.205 44.4971 37.8635 44.3181 37.4818C44.5369 37.4617 44.7358 37.4015 44.9347 37.3211C45.1337 37.2408 45.2928 37.1203 45.4519 36.9596C45.5912 36.819 45.7105 36.6382 45.81 36.4172C45.8895 36.2164 45.9492 35.9753 45.9492 35.7142C45.9492 35.4732 45.9094 35.2723 45.8498 35.0714C45.7901 34.8906 45.6906 34.7299 45.5912 34.5692H46.725C46.7449 34.509 46.7449 34.4688 46.7648 34.3885C46.7847 34.3282 46.7847 34.2679 46.7847 34.2077C46.6852 33.9867 46.5857 33.8662 46.3868 33.8662ZM28.564 38.205C28.4248 38.2451 28.2657 38.2652 28.0866 38.2652C27.7286 38.2652 27.4501 38.1648 27.2114 37.9639C26.9727 37.763 26.8733 37.5019 26.8733 37.1805C26.8733 36.9395 26.9329 36.7386 27.0722 36.5578L28.9619 38.0443C28.8226 38.1246 28.7033 38.1648 28.564 38.205Z" fill="#0B8040"/>
<path d="M61.3452 33.8662H53.8263H53.6074H48.0577C48.0378 33.9265 48.0179 33.9666 48.0179 34.0269C48.0179 34.0872 47.998 34.1474 47.998 34.1876C47.998 34.4286 48.0975 34.5492 48.2964 34.5492H52.1753V35.8347C52.0161 35.7945 51.8371 35.7745 51.6382 35.7544C51.4393 35.7343 51.2205 35.7142 51.0216 35.7142C50.7033 35.7142 50.4049 35.7544 50.1264 35.8347C49.848 35.9151 49.6292 36.0557 49.4302 36.2164C49.2313 36.3771 49.0722 36.598 48.9727 36.8391C48.8534 37.0801 48.8136 37.3814 48.8136 37.7028C48.8136 37.984 48.8534 38.2652 48.9329 38.5263C49.0125 38.7875 49.112 39.0084 49.2512 39.2093C49.3706 39.4102 49.5098 39.5508 49.6689 39.6713C49.8082 39.7918 49.9673 39.832 50.0867 39.832C50.3651 39.832 50.5442 39.7115 50.6038 39.4503C50.4845 39.3499 50.385 39.2294 50.2856 39.1089C50.1861 38.9883 50.0867 38.8678 50.0071 38.7272C49.9275 38.5866 49.8678 38.446 49.8082 38.2853C49.7485 38.1246 49.7286 37.9438 49.7286 37.743C49.7286 37.3011 49.8679 36.9797 50.1463 36.7788C50.4248 36.5779 50.763 36.4775 51.1807 36.4775C51.3597 36.4775 51.5188 36.4976 51.6979 36.5177C51.857 36.5378 52.0161 36.5779 52.1952 36.6181V39.4102C52.1952 39.5508 52.2349 39.6713 52.3145 39.7316C52.3941 39.7918 52.5333 39.832 52.7123 39.832C52.7919 39.832 52.8715 39.832 52.9311 39.8119C52.9908 39.7918 53.0505 39.7918 53.0903 39.7717V34.5492H53.866H54.0848H57.2675V37.6425C57.1879 37.743 57.0686 37.8635 56.9094 37.9639C56.7503 38.0643 56.5315 38.1246 56.253 38.1246C55.9348 38.1246 55.6961 38.0443 55.4971 37.8635C55.3181 37.6827 55.2187 37.4617 55.2187 37.1604C55.2187 36.8591 55.3181 36.6181 55.4971 36.4574C55.6762 36.2967 55.9149 36.2164 56.2331 36.2164C56.3127 36.2164 56.3923 36.2164 56.4519 36.2365C56.5116 36.2565 56.5912 36.2766 56.6707 36.2967C56.7105 36.2565 56.7304 36.1963 56.7503 36.1561C56.7702 36.0958 56.7901 36.0356 56.7901 35.9753C56.7901 35.8347 56.7304 35.7142 56.5912 35.6138C56.4718 35.5133 56.253 35.4732 55.9745 35.4732C55.7557 35.4732 55.5369 35.5133 55.338 35.5937C55.1391 35.674 54.9601 35.7745 54.8009 35.9151C54.6418 36.0557 54.5225 36.2365 54.4429 36.4373C54.3434 36.6382 54.3037 36.8792 54.3037 37.1404C54.3037 37.4216 54.3434 37.6827 54.4429 37.9037C54.5424 38.1246 54.6816 38.3054 54.8407 38.446C54.9999 38.5866 55.1988 38.7071 55.4176 38.7674C55.6364 38.8477 55.8552 38.8879 56.0939 38.8879C56.3525 38.8879 56.5912 38.8477 56.7901 38.7875C56.989 38.7272 57.1481 38.6268 57.2874 38.5263V39.4303C57.2874 39.5709 57.3272 39.6914 57.4067 39.7516C57.4863 39.8119 57.6255 39.8521 57.8046 39.8521C57.8841 39.8521 57.9438 39.8521 58.0035 39.832C58.0631 39.8119 58.1228 39.8119 58.1626 39.7918V36.7185C58.2621 36.598 58.4013 36.4775 58.5803 36.3971C58.7395 36.2967 58.9384 36.2565 59.1373 36.2565C59.4555 36.2565 59.6942 36.3369 59.8733 36.5177C60.0523 36.6984 60.1517 36.9194 60.1517 37.2006C60.1517 37.522 60.0523 37.763 59.8733 37.9438C59.6744 38.1045 59.4555 38.1849 59.1771 38.1849C59.1174 38.1849 59.0577 38.1849 58.998 38.1849C58.9185 38.1849 58.8787 38.1648 58.819 38.1648C58.7991 38.205 58.7792 38.2451 58.7593 38.3054C58.7395 38.3657 58.7395 38.4259 58.7395 38.5063C58.7395 38.8076 58.9781 38.9683 59.4357 38.9683C59.6545 38.9683 59.8733 38.9281 60.0722 38.8477C60.2711 38.7674 60.4501 38.667 60.5894 38.5063C60.7485 38.3657 60.8678 38.1849 60.9474 37.9639C61.0469 37.743 61.0867 37.5019 61.0867 37.2408C61.0867 36.9797 61.0469 36.7587 60.9673 36.5378C60.8877 36.3369 60.7684 36.136 60.6093 35.9954C60.4501 35.8347 60.2711 35.7142 60.0523 35.6338C59.8335 35.5535 59.6147 35.5133 59.3561 35.5133C59.0975 35.5133 58.8588 35.5535 58.6798 35.6138C58.5008 35.6941 58.3217 35.7745 58.1825 35.895V34.6094H61.6237C61.6436 34.5492 61.6635 34.509 61.6635 34.4286C61.6635 34.3684 61.6834 34.3081 61.6834 34.2479C61.6436 33.9867 61.5442 33.8662 61.3452 33.8662Z" fill="#0B8040"/>
<path d="M50.0868 25.6508C49.4702 25.0081 48.9331 24.2849 48.4756 23.4815C48.0181 22.678 47.7993 21.7942 47.7993 20.83C47.7993 20.2073 47.8987 19.665 48.0976 19.2231C48.2568 18.8615 48.8535 17.6764 51.1212 17.6764C52.3146 17.6764 53.7468 18.0179 54.1447 18.1183V25.229C54.1447 25.912 54.3237 26.4141 54.6618 26.7154C55 27.0167 55.6365 27.1774 56.5913 27.1774C56.9891 27.1774 57.3472 27.1373 57.6456 27.077C57.9439 27.0167 58.2025 26.9565 58.4213 26.8962V11.2285H61.2857C61.3653 11.0477 61.4448 10.7866 61.5045 10.4652C61.5642 10.1438 61.604 9.86261 61.604 9.64166C61.604 8.59715 61.1863 8.0548 60.3707 8.0548H42.6275H41.4539H34.2333H33.5172H17.6239H17.4448H15.5353C15.217 7.17098 14.8192 6.30725 14.3219 5.44352C13.745 4.43918 13.0886 3.51519 12.3725 2.71172C11.6564 1.90825 10.8807 1.24538 10.085 0.743211C9.28933 0.241042 8.49367 0 7.69801 0C6.88246 0 6.26582 0.261128 5.88788 0.803472C5.50995 1.34581 5.31103 1.96851 5.31103 2.67154C5.31103 2.77198 5.31103 2.87241 5.31103 2.95276C5.31103 3.05319 5.33092 3.13354 5.35081 3.23397C5.88788 3.37458 6.48463 3.61562 7.14105 3.93701C7.79747 4.2584 8.434 4.66014 9.07052 5.10204C9.70705 5.56404 10.2839 6.06621 10.8409 6.64873C11.2586 7.09064 11.5967 7.55263 11.8752 8.03472H0.338156C0.25859 8.2155 0.198915 8.45654 0.139241 8.75784C0.0198916 9.09932 0 9.36044 0 9.5814C0 10.1237 0.0994574 10.5456 0.278481 10.8067C0.457504 11.0879 0.775769 11.2084 1.23327 11.2084H10.9602V13.2975H9.48825C8.27486 13.2975 7.22061 13.4581 6.3255 13.7996C5.43038 14.1411 4.65461 14.583 4.05787 15.1655C3.44123 15.748 2.98373 16.431 2.68535 17.1943C2.38698 17.9777 2.22785 18.8213 2.22785 19.7252C2.22785 20.8501 2.42676 21.8143 2.82459 22.6579C3.22242 23.5015 3.77939 24.2046 4.4557 24.7469C5.1519 25.3094 5.96745 25.7312 6.90235 26.0124C7.83725 26.2936 8.85172 26.4342 9.92586 26.4342C10.3237 26.4342 10.6618 26.4141 10.9403 26.3539C11.2188 26.2936 11.4774 26.2534 11.7161 26.2133L12.1139 26.1128L12.3924 27.539C12.5714 28.3425 12.8897 28.9852 13.3472 29.4472C13.8047 29.9092 14.3816 30.1302 15.0778 30.1302C15.7342 30.1302 16.311 29.9494 16.7884 29.5878C17.2658 29.2263 17.5443 28.7241 17.6438 28.0612C17.2459 27.6595 16.8282 27.1573 16.3707 26.5949C15.9331 26.0124 15.6148 25.7513 15.1573 24.9478C15.5552 24.6063 15.8734 24.2046 16.1121 23.7225C16.3508 23.2605 16.4702 22.7382 16.4702 22.1758C16.4702 21.2719 16.1917 20.5488 15.6347 20.0466C15.0778 19.5444 14.4213 19.2833 13.6655 19.2833C13.208 19.2833 12.7703 19.3637 12.3924 19.5043C11.9946 19.665 11.6962 19.8658 11.4774 20.127C11.5371 20.3479 11.5967 20.589 11.6365 20.8501C11.6962 21.1112 11.7161 21.3322 11.7161 21.5732C11.7161 22.4972 11.0995 22.9793 9.88608 22.9793C8.95117 22.9793 8.15551 22.6981 7.51899 22.1356C6.88246 21.5732 6.5642 20.7898 6.5642 19.7453C6.5642 18.7008 6.90235 17.9375 7.55877 17.4353C8.21519 16.9332 9.09042 16.672 10.1844 16.672H13.6456C14.66 16.672 15.1772 16.19 15.1772 15.2459V11.2285H18.34H18.4991H27.8879V13.1167H24.1284C22.736 13.1167 21.642 13.4381 20.8264 14.0808C20.0108 14.7236 19.613 15.6677 19.613 16.8729C19.613 17.5358 19.7722 18.1585 20.0705 18.7008C20.3689 19.2431 20.7468 19.6851 21.2242 20.0466C20.6872 20.5086 20.2694 21.071 19.9512 21.7138C19.6528 22.3566 19.4937 23.0998 19.4937 23.9033C19.4937 24.9076 19.6926 25.8115 20.0904 26.5949C20.4882 27.3783 21.0452 28.0211 21.7613 28.5634C22.4774 29.0857 23.3526 29.4874 24.3472 29.7887C25.3418 30.0699 26.4557 30.2105 27.6492 30.2105C28.7432 30.2105 29.5588 30.0298 30.0561 29.6682C30.5533 29.3066 30.8119 28.7844 30.8119 28.1215C30.8119 27.8604 30.7722 27.5792 30.7125 27.2779C30.6329 26.9766 30.5533 26.7556 30.434 26.5949C30.1157 26.6552 29.7378 26.6953 29.3201 26.7355C28.9023 26.7757 28.5045 26.7757 28.1067 26.7757C26.6944 26.7757 25.6401 26.5347 24.9241 26.0526C24.208 25.5705 23.8499 24.8674 23.8499 23.9635C23.8499 23.2806 24.0886 22.6981 24.566 22.2361C25.0434 21.7741 25.6998 21.5531 26.5353 21.5531C27.4304 21.5531 28.1067 21.7741 28.5443 22.216C28.9819 22.6579 29.2007 23.2404 29.2007 23.9635C29.2007 24.064 29.2007 24.1443 29.2007 24.2247C29.2007 24.305 29.1808 24.3854 29.1609 24.4858C29.7179 24.7871 30.3345 24.9478 30.9711 24.9478C31.6275 24.9478 32.2043 24.7871 32.6618 24.4858C33.1193 24.1644 33.358 23.602 33.358 22.7583C33.358 22.1557 33.1989 21.5732 32.9005 21.0309C32.6022 20.4885 32.1646 20.0265 31.5877 19.6248C31.0108 19.2231 30.3146 18.9218 29.4792 18.6807C28.6438 18.4397 27.689 18.3392 26.5949 18.3392C25.8391 18.3392 25.1429 18.4196 24.5262 18.5602C24.3671 18.3995 24.2278 18.2388 24.1284 18.058C24.0289 17.8772 23.9693 17.6764 23.9693 17.4353C23.9693 17.0336 24.0886 16.7122 24.3472 16.4712C24.6058 16.2301 25.0434 16.1297 25.6799 16.1297H30.6329C31.6474 16.1297 32.1646 15.6677 32.1646 14.7236V11.2285H34.4322H35.1284H36.4014V25.229C36.4014 25.912 36.5805 26.4141 36.9186 26.7154C37.2568 27.0167 37.8933 27.1774 38.8481 27.1774C39.2459 27.1774 39.604 27.1373 39.9024 27.077C40.2007 27.0167 40.4593 26.9565 40.6781 26.8962V11.2285H42.3888H43.5027H54.1447V14.3018C53.6275 14.1813 53.0705 14.0808 52.5136 14.0206C51.9367 13.9402 51.3797 13.9201 50.8029 13.9201C48.5353 13.9201 46.745 14.4826 45.4123 15.6074C44.0796 16.7323 43.4231 18.4196 43.4231 20.6291C43.4231 21.4326 43.5425 22.2361 43.7613 23.0395C43.9801 23.843 44.2785 24.5461 44.6564 25.1888C45.0344 25.8115 45.4919 26.3338 46.009 26.7154C46.5262 27.0971 47.0832 27.298 47.66 27.298C48.2966 27.298 48.8336 27.1373 49.2315 26.836C49.6293 26.4945 49.9078 26.1128 50.0868 25.6508Z" fill="#0B8040"/>
<path d="M65.6422 3.91682C65.4035 3.47491 65.0852 3.15352 64.6874 2.89239C64.2697 2.65135 63.8321 2.51074 63.3547 2.51074C62.8773 2.51074 62.4397 2.63126 62.022 2.89239C61.6042 3.13343 61.286 3.47491 61.0672 3.91682C60.8285 4.33864 60.729 4.82072 60.729 5.32289C60.729 5.82506 60.8484 6.30715 61.0871 6.72897C61.3258 7.15079 61.644 7.49227 62.0418 7.7534C62.4397 7.99444 62.8972 8.13504 63.3746 8.13504C63.852 8.13504 64.2896 8.01452 64.6874 7.77348C65.0852 7.53244 65.4234 7.19097 65.6422 6.74906C65.8809 6.30715 66.0002 5.84515 66.0002 5.34298C65.9804 4.82072 65.861 4.35873 65.6422 3.91682ZM65.2444 6.48793C65.0654 6.84949 64.8068 7.1307 64.4686 7.35166C64.1305 7.57261 63.7525 7.67305 63.3547 7.67305C62.937 7.67305 62.5789 7.57261 62.2408 7.35166C61.9026 7.1307 61.644 6.84949 61.465 6.48793C61.286 6.12637 61.1865 5.74472 61.1865 5.34298C61.1865 4.92116 61.286 4.51942 61.4849 4.15786C61.6838 3.7963 61.9424 3.51508 62.2805 3.31421C62.6187 3.11335 62.9767 3.01291 63.3746 3.01291C63.7724 3.01291 64.1503 3.11335 64.4885 3.3343C64.8267 3.55526 65.0852 3.83647 65.2842 4.17795C65.4831 4.51942 65.5626 4.92116 65.5626 5.34298C65.5229 5.74472 65.4433 6.12637 65.2444 6.48793Z" fill="#0B8040"/>
<path d="M64.4881 6.16648C64.4881 5.96561 64.4682 5.78483 64.4085 5.64422C64.3489 5.50361 64.2494 5.40318 64.1102 5.32283C64.3688 5.18222 64.508 4.96127 64.508 4.68005C64.508 4.37875 64.4085 4.13771 64.1897 3.95693C63.9709 3.77615 63.6726 3.6958 63.2946 3.6958H62.2603V6.86951H62.8172V5.60405H63.3941C63.593 5.60405 63.7123 5.64422 63.8118 5.72457C63.8914 5.80491 63.9311 5.94552 63.9311 6.1263C63.9311 6.52804 63.951 6.76908 63.9709 6.84943H64.5478V6.78917C64.5279 6.72891 64.508 6.66864 64.4881 6.56821C64.4881 6.50795 64.4881 6.36734 64.4881 6.16648ZM63.7521 5.00144C63.6328 5.08179 63.4736 5.12196 63.2747 5.12196H62.7973V4.19797H63.3145C63.5532 4.19797 63.7123 4.23814 63.7919 4.31849C63.8715 4.39884 63.9311 4.51936 63.9311 4.70014C63.951 4.80057 63.8914 4.92109 63.7521 5.00144Z" fill="#0B8040"/>
</svg>
